<svg version="1.1" id="Layer_1" xmlns="http://www.w3.org/2000/svg" xmlns:xlink="http://www.w3.org/1999/xlink" x="0px" y="0px"
	 viewBox="0 0 170.2 208.4" style="enable-background:new 0 0 170.2 208.4;" xml:space="preserve">
<style type="text/css">
	.st0{fill:#CDAEAC;}
	.st1{fill:#AC9392;}
	.st2{fill:none;}
	.st3{fill:#FFFFFF;}
	.st4{fill:#030303;}
	.st5{fill:#010101;}
	.st6{fill:#080406;}
</style>
<path class="st0" d="M160.8,153.2l-0.1,0.3c0,0.1-0.6,4.7-2.5,11c-2.8,3.8-19.4,25.4-31.8,28.7c0,0-20.9,5.9-33,3.3
	c-3.6-2.3-6.9-5-10.3-7.7c-3.6-2.9-7.4-5.9-11.2-8.3c-15.7-9.8-26.7-33.4-26.8-33.6l-9.4-24.4l-0.8-2.2l-0.8-2.2c-0.1,0-0.2,0-0.3,0
	c-0.2-0.3-0.5-0.7-0.8-1.2c-0.5-0.7-1-1.6-1.7-2.6c-6.6-10.7-21.8-39-15.5-64C19.3,36.1,29.2,25,45.1,17.2
	c30.6-15,55.4-17.2,73.7-6.8c16.9,9.7,27.4,30,30.8,59.1v0c0.2,1.3,0.3,2.7,0.4,4.1c-0.1,0-0.1,0-0.1,0l0.4,4.6l1.9,5.2l1.5,4.2
	l1.6,4.3c2.4,7.1,4.9,13.8,7.2,18.7C170.1,127,160.9,152.9,160.8,153.2z"/>
<path class="st1" d="M149.5,69.5c-2.6-8.7-4.3-15-4.3-15s-1.8-18.9-16.3-29.7s-28.2-19.8-44.6,0.4c0,0-38.3,4.7-51.3,21.3
	c-11.9,15.2-3.1,60.3-1.6,67.7c-6.6-10.7-21.8-39-15.5-64C19.3,36.1,29.2,25,45.1,17.2c30.6-15,55.4-17.2,73.7-6.8
	C135.6,20.1,146.2,40.5,149.5,69.5z"/>
<g>
	<path class="st0" d="M42.1,147.1c-1.2,0.5-2.9,0.4-3.8-0.3c-7.5-6.2-11.1-11.5-10.6-15.5c0.4-3,3.1-4.8,5.4-5.8
		c0.4-0.2,0.7-0.3,1-0.4c0,0,0.1,0,0.1,0l8.1,21.9C42.3,147,42.2,147.1,42.1,147.1z"/>
</g>
<g>
	<path class="st2" d="M31.6,115.2"/>
</g>
<g>
	<path class="st0" d="M162.8,95c-0.2,0.9-1.2,2-2.3,2.5c-0.1,0.1-0.3,0.1-0.4,0.2c-2-5.4-4-11.5-5.8-17.2c-0.5-1.7-1.1-3.4-1.6-5
		c0.4-0.1,0.9-0.3,1.4-0.4c2-0.5,4.7-0.6,6.7,1C164,78.6,164.7,85.1,162.8,95z"/>
</g>
<g>
	<path class="st3" d="M31.7,109.2c5.9,13.1,21.4,18.8,34.8,12.9c13.4-6,19.4-21.4,13.6-34.5c-5.9-13.1-21.4-18.8-34.8-12.9
		C32,80.7,25.9,96.2,31.7,109.2z"/>
</g>
<path id="left_eye" class="st4" d="M46.9,102.9c2.2,4.8,7.9,7,12.9,4.8c4.9-2.2,7.2-7.9,5-12.8c-2.2-4.9-7.9-7-12.9-4.8
	C47,92.3,44.7,98,46.9,102.9z"/>
<g>
	<path class="st3" d="M99.5,85.8c5.4,12,19.6,17.2,31.8,11.7c12.2-5.5,17.8-19.6,12.4-31.5c-5.4-11.9-19.6-17.2-31.8-11.7
		C99.7,59.7,94.1,73.8,99.5,85.8z"/>
</g>
<path id="right_eye" class="st4" d="M113.4,79.6c2,4.4,7.3,6.4,11.8,4.3c4.5-2,6.6-7.3,4.6-11.7c-2-4.4-7.3-6.4-11.8-4.3
	C113.5,69.9,111.4,75.1,113.4,79.6z"/>
<g>
	<path class="st5" d="M112.3,137c-0.1,0-0.2,0.1-0.3,0.1c-1.5,0.6-3,0.4-4.7-0.5c-2.9-1.5-7-1.3-11.3-1c-3.1,0.2-6.3,0.3-9.3-0.1
		c-2.9-0.4-4.1-1.9-4.6-3.1c-1.4-3.5,1.9-8.2,2.6-9.1l2.8,2.2l-1.4-1.1l1.4,1.1c-1.2,1.6-2.6,4.4-2.1,5.5c0.2,0.5,1.1,0.8,1.8,0.9
		c2.7,0.4,5.7,0.2,8.6,0.1c4.6-0.2,9.3-0.5,13.1,1.4c1.1,0.6,1.6,0.4,1.8,0.3c1.4-0.5,2.4-3,3-4.6c0.5-1.1,0.8-2,1.3-2.5
		c0.6-0.7,5.9-5.3,9-5.6c0.4-0.2,1.2-1.2,1.4-2.7c0.2-1.6-0.4-4.1-4.2-6.7l2-3c6.5,4.4,6,9.4,5.5,11.4c-0.7,2.6-2.5,4.5-4.4,4.6
		c-1.2,0.1-5.3,3.1-6.7,4.4c-0.1,0.2-0.4,0.9-0.6,1.4C116.2,132.6,114.9,135.8,112.3,137L112.3,137z"/>
</g>
<path class="st5" d="M34.3,125.1c0,0-0.1,0-0.1,0l8.2,21.9L34.3,125.1z"/>
<path class="st5" d="M164.9,109.5c-1.2-2.6-2.5-5.8-3.9-9.3c0.2-0.1,0.4-0.1,0.6-0.2c1.6-0.7,3.4-2.4,3.8-4.4
	c2.1-11.1,1.1-18.3-3-21.6c-2.7-2.1-6-2.1-8.6-1.5c-3-32.1-14.5-54.7-33.1-65.4c-19.5-11.2-45.5-8.9-77.4,6.6
	c-17,8.3-27.6,20.3-31.4,35.5C7.5,66.6,13,85.2,18.3,97.8c5.7,13.5,12.4,22.8,12.7,23.2l0.5,0.6l1.4,1.1c-0.2,0.1-0.5,0.2-0.8,0.3
	c-2.8,1.3-6.3,3.7-6.9,7.9c-0.7,5,3.2,11,11.5,17.9c1.8,1.5,4.8,1.5,6.6,0.7c0.1,0,0.2-0.1,0.3-0.1c2.8,5.6,13,24.4,27.1,33.2
	c3.7,2.3,7.3,5.2,11,8.1c5.8,4.7,12,9.6,19.4,12.7l4.4,3.7c0,0,15.5,5,33.4-5.6c18-10.7,17-22,17.1-22.7c0,0,0-0.1,0-0.2
	c5.6-11.7,7.3-23,7.5-24.7C164.2,151.6,172.8,126.4,164.9,109.5z M154.1,75.1c2-0.5,4.7-0.6,6.7,1c3.2,2.5,3.9,9.1,2,19
	c-0.2,0.9-1.2,2-2.3,2.5c-0.1,0.1-0.3,0.1-0.4,0.2c-2-5.4-4-11.5-5.8-17.2c-0.5-1.7-1.1-3.4-1.6-5C153.1,75.3,153.6,75.2,154.1,75.1
	z M42.1,147.1c-1.2,0.5-2.9,0.4-3.8-0.3c-7.5-6.2-11.1-11.5-10.6-15.5c0.4-3,3.1-4.8,5.4-5.8c0.4-0.2,0.7-0.3,1-0.4c0,0,0.1,0,0.1,0
	l8.1,21.9C42.3,147,42.2,147.1,42.1,147.1z M160.8,153.2l-0.1,0.3c0,0.1-0.6,4.7-2.5,11c-2.8,3.8-19.4,25.4-31.8,28.7
	c0,0-20.9,5.9-33,3.3c-3.6-2.3-6.9-5-10.3-7.7c-3.6-2.9-7.4-5.9-11.2-8.3c-15.4-9.6-26.4-32.7-26.8-33.5l0,0l-0.1-0.3l-9.3-24.1
	l-0.2-0.5l-0.7-1.7l-0.8-2.2c-0.1,0-0.7-0.7-0.8-0.8c-0.2-0.3,0,0-0.3-0.5c-0.5-0.7-1-1.6-1.7-2.6c-6.6-10.7-21.8-39-15.5-64
	C19.3,36.1,29.2,25,45.1,17.2c30.6-15,55.4-17.2,73.7-6.8c16.9,9.7,27.4,30,30.8,59.1v0c0.2,1.3,0.3,2.7,0.4,4.1l0.3,4.7l1.9,5.2
	l1.5,4.2l1.6,4.3c2.4,7.1,4.9,13.8,7.2,18.7C170.1,127,160.9,152.9,160.8,153.2z M33.3,117.3c0.2,0.3,0.3,0.5,0.5,0.7
	c0.1,0,0.2,0,0.3,0C34,118,33.4,117.3,33.3,117.3z"/>
<path class="st0" d="M42.4,147c-0.1,0.1-0.2,0.1-0.3,0.2c-1.2,0.5-2.9,0.4-3.8-0.3c-7.5-6.2-11.1-11.5-10.6-15.5
	c0.4-3,3.1-4.8,5.4-5.8c0.4-0.2,0.7-0.3,1-0.4c0,0,0.1,0,0.1,0L42.4,147z"/>
<path class="st0" d="M162.8,95c-0.2,0.9-1.2,2-2.3,2.5c-0.1,0.1-0.3,0.1-0.4,0.2c-2-5.4-4-11.5-5.8-17.2c-0.5-1.7-1.1-3.4-1.6-5
	c0.4-0.1,0.9-0.3,1.4-0.4c2-0.5,4.7-0.6,6.7,1C164,78.6,164.7,85.1,162.8,95z"/>
<g>
	<path class="st4" d="M64.5,60.4c0,0,8.8,3.7,0.5,6c-8.3,2.3-17.2-1-26.7,6.5l-5.6,4.7c0,0,1.3-6.9,4-9.3c2.8-2.4,2.8-2.4,2.8-2.4
		S58.2,59.6,64.5,60.4z"/>
</g>
<g>
	<path class="st4" d="M102.1,55.4c0,0,18.2-10.4,25.2-8c0,0,7.6-0.6-0.4-6.4C126.9,41.1,102.2,48.2,102.1,55.4z"/>
</g>
<path id="mouth" class="st4" d="M129,154.8c-1,0.1-2-0.5-2.4-1.5c-0.5-1.2,0.1-2.6,1.3-3.1l13.9-5.9c1.2-0.5,2.6,0.1,3.1,1.3
	c0.5,1.2-0.1,2.6-1.3,3.1l-13.9,5.9C129.5,154.7,129.3,154.8,129,154.8L129,154.8z"/>
<path id="glasses" class="st6" d="M170,47.5c0.4-1,0-2.1-0.2-3.1c-0.2-1-0.4-2-0.6-3c-0.1-0.8-0.2-2-0.8-2.6
	c-0.4-0.4-1.2-0.2-1.7-0.1c-2.8,0.3-5.6,0.8-8.3,1.3c-8.5,1.7-16.8,4.2-25,7.2c-4.4,1.6-8.5,3.6-12.8,5.4c-1.6,0.7-3.4,1.4-4.8,2.4
	c-1.5,0.9-3.1,1.6-4.5,2.5c-3.5,2.2-7.2,4.4-10.6,6.9c-1,0.8-2.1,1.5-3.2,2.2c-0.8,0.5-1.7,0.8-2.5,1.3c-2.3,1.3-6.7,3.3-6.5,3.4
	c-2,0.7-4.1,1.5-6.1,2.2c0.1-0.2-5.3,1.2-8.2,1.7c-0.5,0.1-0.9,0.3-1.4,0.4c-0.6,0.1-1.2,0.2-1.8,0.2c-1.5,0.2-3,0.3-4.4,0.3
	c-2.6,0.1-5.2,0.7-7.8,0.9c-2.2,0.2-4.5,0.6-6.6,1.1c-2.3,0.6-4.7,1-7,1.6c-2.9,0.7-5.8,1.6-8.7,2.5c-5.3,1.8-10.7,3.7-15.8,6
	c-4.8,2.2-9.6,4.4-14.2,7.1c-1.5,0.8-2.9,1.7-4.4,2.6C1.2,98.3,0,98.9,0,99.8c0,1,0.8,1.9,1.3,2.7c0.7,1.2,1.3,2.5,2,3.7
	c0.6,1,1.5,1.2,2.6,1.4c1.1,0.2,2.2,0.6,3,1.4c0.7,0.7,1.1,1.5,1.7,2.4c0.7,1.2,1.5,2.4,2.3,3.6c1.4,2,2.8,3.9,4.2,5.9
	c2.9,4.1,7,7.2,11.8,8.7c5.4,1.5,11.1,0.8,16.4-0.4c5.6-1.4,11.1-3.7,16.2-6.3c4.8-2.5,9.3-5.6,12.9-9.8c1.8-2.1,3.2-4.3,4.4-6.8
	c0.5-1,1-2.1,1.4-3.2c0.3-1,0.5-2,0.7-2.9c0.8-3,1.1-6,1.5-9c0.3-2.5,0.2-5.4,1.8-7.5c1.5-2,4-3.2,6.4-3.4c3-0.3,5,1.1,7.1,3.1
	c2.1,2,4.1,4,6.3,5.9c1.7,1.4,3.6,3.1,5.6,4c2.4,1.2,4.8,2.3,7.3,3c2.8,0.8,5.8,1.1,8.8,1.1c6,0,11.8-1.6,17.5-3.3
	c5.4-1.6,10.9-4,15.5-7.3c4.2-3,7.6-7,9.1-12c0.8-2.5,1.2-5.4,0.9-8.1c0,0,0,0,0,0c-0.3-3.9-0.4-7.8-1-11.6c-0.2-1.8-0.6-3.4,0.4-5
	C168.7,49,169.6,48.4,170,47.5z M76.1,98.9c0,0.1,0,0.1,0,0.2c0,0,0,0.1,0,0.1c0,0,0,0.1,0,0.1v0c0,0,0,0,0,0c0,0,0,0,0,0
	c-0.6,5.1-2.3,9.9-5.8,13.7c-3.9,4.2-9.2,7.3-14.4,9.4c-5.1,2.1-10.4,3.8-15.9,4.7c-2.1,0.3-4.2,0-6.3-0.5c-2.3-0.6-4.6-1.4-6.6-2.7
	c-4.6-3.2-7.4-8.1-9.5-13.1c-1-2.6-2-5.6-1.9-8.4c0.1-2.7,1.9-5.3,3.9-6.9c4.5-3.6,10-6,15.3-8.2c5.6-2.3,11.4-4.1,17.3-5.5
	c3.3-0.8,6.7-1.5,10.1-1.8c3-0.3,6.7-0.5,9.3,1.3c2.5,1.7,3.3,5.2,3.9,7.9C76.1,92.5,76.4,95.7,76.1,98.9z M163.3,74
	C163.3,74.1,163.3,74.1,163.3,74c0,0.1-0.1,0.2-0.1,0.3c0,0.1,0,0.1,0,0.2c0,0,0,0,0,0c0,0,0,0,0,0c-0.6,2.4-2,4.6-3.4,6.5
	c-1.1,1.6-2.4,3.1-4,4.1c-4.5,2.9-9.6,4.8-14.7,6.5c-5.6,1.8-11.7,3-17.6,2.4c-5.1-0.6-9.7-3-13.4-6.5c-2.1-2-3.8-4.2-5.3-6.6
	c-1.4-2.4-2.9-5.1-3.3-7.8c-0.9-5.8,6.2-9.6,10.4-12c5.2-3,10.8-5.5,16.5-7.6c5.5-2.1,11.2-3.8,17-4.8c3.3-0.5,6.7-0.9,9.8,0.4
	c2.8,1.2,4.3,3.8,5.5,6.5c1.3,2.9,2.3,6.2,2.8,9.3C164,68,164,71,163.3,74z"/>
<g>
	<g>
		<path class="st6" d="M167.6,39.1C167.6,39.1,167.6,39.1,167.6,39.1C167.6,39.1,167.6,39.1,167.6,39.1z"/>
	</g>
</g>
</svg>
