<svg version="1.1" id="Layer_1" xmlns="http://www.w3.org/2000/svg" xmlns:xlink="http://www.w3.org/1999/xlink" x="0px" y="0px"
	 viewBox="0 0 180.5 211.1" style="enable-background:new 0 0 180.5 211.1;" xml:space="preserve">
<style type="text/css">
	.st10{fill:#CDAEAC;}
	.st11{fill:#AC9392;}
	.st12{fill:none;}
	.st13{fill:#FFFFFF;}
	.st14{fill:#030303;}
	.st15{fill:#010101;}
	.st16{fill:#080406;}
</style>
<path class="st10" d="M143,167.5l-0.1,0.3c0,0.1-1.8,4.4-5.1,10.1c-3.6,3-25,19.9-37.8,20c0,0-21.7,0.6-32.8-4.8
	c-2.9-3.1-5.5-6.6-8.1-10c-2.8-3.7-5.7-7.6-8.9-10.8c-12.8-13.3-17.8-38.9-17.8-39.1l-3.2-26l-0.3-2.3l-0.3-2.3
	c-0.1,0-0.2-0.1-0.3-0.1c-0.1-0.3-0.3-0.8-0.5-1.4c-0.3-0.8-0.6-1.8-1-3c-3.8-12-11.6-43.1,0.6-65.9c6.8-12.8,19.1-21.1,36.4-24.8
	c33.3-7,57.9-3.2,73.1,11.4c14,13.5,19.3,35.8,15.4,64.8l0,0c-0.2,1.3-0.4,2.7-0.6,4.1c-0.1,0-0.1,0-0.1,0l-0.7,4.6l0.6,5.5l0.5,4.4
	l0.5,4.5c0.6,7.4,1.4,14.6,2.5,19.9C158.4,144.3,143.2,167.3,143,167.5z"/>
<path class="st11" d="M152.4,83.6c-0.4-9-0.5-15.6-0.5-15.6s2.9-18.7-8.6-32.8c-11.5-14.1-22.6-26.1-43.4-10.5c0,0-38.3-4.8-55,8.2
	c-15.2,11.9-17.7,57.7-18,65.2c-3.8-12-11.6-43.1,0.6-65.9c6.8-12.8,19.1-21.1,36.4-24.8c33.3-7,57.9-3.2,73.1,11.4
	C151,32.3,156.3,54.6,152.4,83.6z"/>

	<path class="st10" d="M29.3,132.7c-1.3,0.2-2.9-0.3-3.6-1.2c-5.7-7.8-8-13.9-6.5-17.6c1.1-2.8,4.2-3.9,6.6-4.3
		c0.4-0.1,0.8-0.1,1.1-0.2c0,0,0.1,0,0.1,0l2.5,23.2C29.5,132.6,29.4,132.7,29.3,132.7z"/>

	<path class="st12" d="M26.9,99.1"/>

	<path class="st10" d="M159.1,111.6c-0.4,0.8-1.6,1.6-2.8,1.9c-0.2,0-0.3,0-0.4,0.1c-0.6-5.8-1.1-12.1-1.4-18.1
		c-0.1-1.8-0.2-3.5-0.3-5.2c0.4,0,0.9,0,1.4,0c2.1,0.1,4.7,0.6,6.2,2.6C164.2,95.9,163.3,102.5,159.1,111.6z"/>


		<ellipse transform="matrix(-0.9848 0.1736 -0.1736 -0.9848 260.1178 143.2149)" class="st13" cx="123.8" cy="83" rx="24.2" ry="23.7"/>

<path id="Right_x5F_eye" class="st14" d="M115,84.5c0.8,4.8,5.5,8,10.4,7.1c4.9-0.9,8.2-5.4,7.3-10.2c-0.8-4.8-5.5-8-10.4-7.1
	C117.4,75.2,114.1,79.8,115,84.5z"/>

	<path class="st15" d="M99.9,140c-0.1,0-0.2,0-0.3,0c-1.6,0.2-3-0.4-4.4-1.6c-2.5-2.2-6.5-2.9-10.7-3.8c-3-0.6-6.2-1.2-9-2.4
		c-2.7-1.1-3.5-2.9-3.7-4.1c-0.5-3.8,3.9-7.5,4.7-8.2l2.2,2.8l-1.1-1.4l1.1,1.4c-1.5,1.2-3.6,3.6-3.4,4.9c0.1,0.6,0.9,1,1.5,1.3
		c2.5,1,5.5,1.6,8.3,2.2c4.5,0.9,9.2,1.8,12.4,4.6c0.9,0.8,1.5,0.7,1.7,0.7c1.4-0.2,3-2.4,4-3.7c0.7-1,1.2-1.7,1.9-2.1
		c0.8-0.5,7-3.7,10.1-3.2c0.4-0.1,1.5-0.9,2-2.3c0.6-1.5,0.6-4.1-2.4-7.5l2.7-2.4c5.3,5.9,3.5,10.6,2.5,12.4
		c-1.3,2.3-3.6,3.7-5.4,3.4c-1.2-0.2-5.9,1.7-7.6,2.7c-0.2,0.2-0.6,0.7-0.9,1.2C104.8,136.7,102.7,139.5,99.9,140L99.9,140z"/>

<path class="st15" d="M27.1,109.4c0,0-0.1,0-0.1,0l2.6,23.2L27.1,109.4z"/>
<path class="st15" d="M157.6,126.1c-0.6-2.9-1-6.3-1.5-10c0.2,0,0.4,0,0.6-0.1c1.7-0.3,3.9-1.5,4.8-3.4c4.8-10.2,5.6-17.5,2.4-21.7
	c-2.1-2.7-5.3-3.5-7.9-3.6c4.9-31.9-0.7-56.6-16.2-71.5C123.6,0.4,97.8-3.8,63.1,3.5C44.6,7.4,31.4,16.4,24,30.3
	c-8.5,15.9-7.8,35.2-5.7,48.7c2.3,14.5,6.5,25.1,6.6,25.6l0.3,0.7l1.1,1.5c-0.3,0-0.5,0.1-0.8,0.1c-3.1,0.5-7.1,2-8.6,6
	c-1.9,4.7,0.4,11.5,6.8,20.2c1.4,1.9,4.3,2.6,6.2,2.3c0.1,0,0.2,0,0.3-0.1c1.4,6.1,6.6,26.8,18.2,38.8c3.1,3.2,5.8,6.8,8.7,10.6
	c4.5,5.9,9.3,12.3,15.7,17l3.3,4.6c0,0,13.8,8.6,33.8,2.7c20-6,21.9-17.2,22.1-17.8c0,0,0-0.1,0.1-0.2c8.3-10,12.7-20.6,13.3-22.1
	C146.7,166.8,161.1,144.4,157.6,126.1z M155.5,90.1c2.1,0.1,4.7,0.6,6.2,2.6c2.5,3.3,1.6,9.8-2.7,18.9c-0.4,0.8-1.6,1.6-2.8,1.9
	c-0.2,0-0.3,0-0.4,0.1c-0.6-5.8-1.1-12.1-1.4-18.1c-0.1-1.8-0.2-3.5-0.3-5.2C154.5,90.1,155,90.1,155.5,90.1z M29.3,132.7
	c-1.3,0.2-2.9-0.3-3.6-1.2c-5.7-7.8-8-13.9-6.5-17.6c1.1-2.8,4.2-3.9,6.6-4.3c0.4-0.1,0.8-0.1,1.1-0.2c0,0,0.1,0,0.1,0l2.5,23.2
	C29.5,132.6,29.4,132.7,29.3,132.7z M143,167.5l-0.1,0.3c0,0.1-1.8,4.4-5.1,10.1c-3.6,3-25,19.9-37.8,20c0,0-21.7,0.6-32.8-4.8
	c-2.9-3.1-5.5-6.6-8.1-10c-2.8-3.7-5.7-7.6-8.9-10.8c-12.6-13.1-17.6-38.1-17.8-39.1l0,0l0-0.4l-3.1-25.6l-0.1-0.5l-0.2-1.8
	l-0.3-2.3c-0.1,0-0.5-0.9-0.6-0.9c-0.1-0.3,0,0-0.2-0.6c-0.3-0.8-0.6-1.8-1-3c-3.8-12-11.6-43.1,0.6-65.9
	c6.8-12.8,19.1-21.1,36.4-24.8c33.3-7,57.9-3.2,73.1,11.4c14,13.5,19.3,35.8,15.4,64.8l0,0c-0.2,1.3-0.4,2.7-0.6,4.1l-0.8,4.6
	l0.6,5.5l0.5,4.4l0.5,4.5c0.6,7.4,1.4,14.6,2.5,19.9C158.4,144.3,143.2,167.3,143,167.5z M28.1,101.6c0.1,0.3,0.2,0.6,0.3,0.8
	c0.1,0,0.2,0.1,0.3,0.1C28.6,102.5,28.2,101.6,28.1,101.6z"/>
<path class="st10" d="M29.6,132.6c-0.1,0-0.2,0.1-0.3,0.1c-1.3,0.2-2.9-0.3-3.6-1.2c-5.7-7.8-8-13.9-6.5-17.6
	c1.1-2.8,4.2-3.9,6.6-4.3c0.4-0.1,0.8-0.1,1.1-0.2c0,0,0.1,0,0.1,0L29.6,132.6z"/>
<path class="st10" d="M159.1,111.6c-0.4,0.8-1.6,1.6-2.8,1.9c-0.2,0-0.3,0-0.4,0.1c-0.6-5.8-1.1-12.1-1.4-18.1
	c-0.1-1.8-0.2-3.5-0.3-5.2c0.4,0,0.9,0,1.4,0c2.1,0.1,4.7,0.6,6.2,2.6C164.2,95.9,163.3,102.5,159.1,111.6z"/>

	<path class="st14" d="M71.7,62.6c0,0,3.8,8.8-3.8,4.7c-7.6-4.1-11.7-12.6-23.7-13.8l-7.3-0.5c0,0,5.7-4.1,9.3-3.9
		c3.7,0.2,3.7,0.2,3.7,0.2S67.6,57.7,71.7,62.6z"/>

	<path class="st14" d="M110.7,61.1c0,0,18.8-9.4,25.6-6.5c0,0,7.6-0.2,0-6.4C136.3,48.2,111.2,53.9,110.7,61.1z"/>

<path id="Mouth" class="st14" d="M111.8,161.3c-1-0.2-1.8-1-2-2c-0.2-1.3,0.7-2.5,2-2.7l14.9-2.3c1.3-0.2,2.5,0.7,2.7,2
	c0.2,1.3-0.7,2.5-2,2.7l-14.9,2.3C112.3,161.3,112,161.3,111.8,161.3L111.8,161.3z"/>
<path id="Glasses" class="st16" d="M177.7,67.2c0.6-0.9,0.5-2.1,0.5-3.1c0.1-1,0.1-2,0.2-3c0.1-0.7,0.3-2-0.2-2.7
	c-0.3-0.5-1.1-0.5-1.6-0.6c-2.8-0.3-5.6-0.6-8.4-0.7c-8.7-0.5-17.4,0-26,0.8c-4.6,0.5-9.1,1.4-13.7,2.1c-1.7,0.3-3.6,0.6-5.3,1.1
	c-1.6,0.5-3.4,0.8-5,1.3c-3.9,1.3-8,2.5-11.9,4.1c-1.2,0.5-2.4,1-3.6,1.3c-0.9,0.3-1.9,0.4-2.8,0.7c-2.6,0.7-7.3,1.6-7.2,1.7
	c-2.1,0.2-4.3,0.4-6.4,0.6c0.1-0.2-5.4-0.1-8.4-0.4c-0.5,0-1,0.1-1.5,0c-0.6,0-1.2-0.1-1.8-0.2c-1.5-0.2-3-0.4-4.4-0.8
	c-2.6-0.6-5.2-0.6-7.8-1c-2.2-0.3-4.5-0.5-6.7-0.5c-2.4,0-4.8-0.1-7.2-0.1c-3,0-6,0.1-9,0.3c-5.6,0.4-11.2,0.9-16.7,2
	c-5.2,1-10.4,1.9-15.5,3.4c-1.6,0.5-3.3,0.9-4.9,1.5c-0.8,0.2-2.1,0.5-2.3,1.3c-0.2,1,0.3,2,0.6,2.9c0.4,1.4,0.6,2.8,1,4.1
	c0.3,1.2,1.2,1.6,2.2,2c1,0.4,1.9,1.1,2.6,2.1c0.5,0.8,0.7,1.8,1,2.7c0.4,1.4,0.9,2.7,1.4,4c0.8,2.3,1.8,4.5,2.7,6.7
	c1.9,4.7,5,8.7,9.4,11.3c4.8,2.8,10.6,3.5,16,3.6c5.8,0.1,11.6-0.8,17.3-2.2c5.3-1.2,10.4-3.1,14.9-6.3c2.2-1.6,4.2-3.4,5.9-5.5
	c0.7-0.9,1.5-1.8,2.1-2.7c0.5-0.8,1-1.8,1.4-2.7c1.5-2.7,2.5-5.5,3.6-8.4c0.9-2.4,1.5-5.2,3.6-6.8c1.9-1.6,4.7-2.1,7.1-1.7
	c3,0.4,4.6,2.3,6.1,4.7c1.5,2.4,3,4.9,4.7,7.2c1.3,1.8,2.8,3.8,4.5,5.3c2,1.7,4.1,3.4,6.4,4.7c2.6,1.4,5.4,2.5,8.2,3.2
	c5.8,1.5,11.8,1.3,17.7,1.1c5.7-0.2,11.5-1.2,16.8-3.3c4.8-1.9,9.1-5,11.8-9.4c1.4-2.2,2.5-5,2.8-7.6c0,0,0,0,0,0
	c0.6-3.8,1.5-7.6,1.9-11.5c0.2-1.8,0.3-3.4,1.6-4.8C176,68.4,177.1,68,177.7,67.2z M74.1,94.2c0,0,0,0.1,0,0.1c0,0,0,0.1,0,0.1
	c0,0,0,0.1,0,0.1l0,0c0,0,0,0,0,0c0,0,0,0,0,0c-1.8,4.8-4.7,9.1-9,11.9c-4.8,3.1-10.7,4.8-16.3,5.6c-5.4,0.8-11,1.2-16.5,0.7
	c-2.1-0.2-4.1-1-6-2c-2.1-1.1-4.2-2.5-5.7-4.3c-3.7-4.2-5.2-9.6-6-15c-0.4-2.8-0.5-5.9,0.2-8.6c0.7-2.6,3.1-4.6,5.4-5.7
	c5.2-2.4,11.1-3.4,16.8-4.2c6-0.8,12.1-1.2,18.1-1.1c3.4,0,6.9,0.2,10.2,0.7c3,0.5,6.6,1.2,8.7,3.5c2,2.2,2,5.8,1.8,8.6
	C75.7,88,75.2,91.1,74.1,94.2z M164.7,91.4C164.7,91.4,164.7,91.4,164.7,91.4c-0.1,0.1-0.1,0.2-0.2,0.3c0,0.1-0.1,0.1-0.1,0.1
	c0,0,0,0,0,0c0,0,0,0,0,0c-1.2,2.2-3.1,3.9-4.9,5.5c-1.4,1.2-3.1,2.4-4.9,3c-5,1.7-10.5,2.4-15.8,2.7c-5.9,0.4-12.1,0.1-17.6-2
	c-4.8-1.8-8.7-5.3-11.4-9.5c-1.5-2.4-2.7-5-3.5-7.7c-0.8-2.7-1.5-5.6-1.3-8.4c0.6-5.8,8.4-7.8,13-9.1c5.8-1.7,11.8-2.7,17.8-3.3
	c5.8-0.7,11.8-1,17.7-0.5c3.3,0.3,6.7,0.7,9.4,2.8c2.5,1.8,3.2,4.7,3.8,7.6c0.5,3.1,0.7,6.6,0.4,9.7
	C166.9,85.6,166.1,88.6,164.7,91.4z"/>

		<path class="st16" d="M180.4,64.5C180.5,64.5,180.5,64.5,180.4,64.5C180.4,64.5,180.4,64.5,180.4,64.5z"/>

<path class="st15" d="M22.7,74.1c0.9,0,1.8,0,2.7,0l2.6,0.2c0.9,0,1.7,0.2,2.6,0.2c0.9,0.1,1.7,0.2,2.6,0.3l5.1,0.8l2.5,0.5
	c0.8,0.1,1.7,0.3,2.5,0.5c1.7,0.3,3.3,0.7,5,1.1c1.6,0.4,3.3,0.8,4.9,1.3c1.6,0.5,3.3,0.9,4.9,1.4c1.6,0.5,3.2,1,4.8,1.6l19.3,6.8
	l-20,3.6c-0.5,0.1-1.3,0.3-1.9,0.4l-2.1,0.5c-1.4,0.3-2.8,0.7-4.1,1.1c-1.4,0.4-2.7,0.8-4.1,1.2c-1.4,0.4-2.7,0.8-4,1.3
	c-0.7,0.2-1.3,0.5-2,0.7c-0.6,0.3-1.3,0.5-2,0.8c-0.7,0.3-1.3,0.6-1.9,0.9l-1.9,1c-0.6,0.3-1.3,0.7-1.9,1c-0.6,0.4-1.2,0.8-1.8,1.2
	c-0.6,0.4-1.2,0.9-1.8,1.3c-0.6,0.5-1.1,1-1.8,1.5l-0.5-0.3c0.4-0.7,0.7-1.4,1.2-2c0.4-0.7,0.9-1.3,1.4-1.9l0.7-0.9l0.8-0.8
	c0.5-0.5,1.1-1.1,1.7-1.6c0.6-0.5,1.2-1,1.8-1.4c0.6-0.4,1.2-0.9,1.9-1.3c1.3-0.8,2.6-1.6,4-2.3c2.7-1.4,5.5-2.6,8.4-3.6
	c1.4-0.5,2.9-1,4.4-1.4c1.5-0.4,2.9-0.8,4.5-1.1L61,87.6c-3.2-1-6.4-2.1-9.6-3.2l-9.6-3.2L32.1,78l-9.6-3.3L22.7,74.1z"/>
</svg>
